<svg width="12" height="21" viewBox="0 0 12 21" fill="none" xmlns="http://www.w3.org/2000/svg">
<path d="M4.64907 10.8372L11.4339 4.09874C11.7909 3.74208 11.9922 3.25866 11.994 2.75404C11.9957 2.24943 11.7977 1.76463 11.4432 1.40554C11.2662 1.2259 11.0554 1.08308 10.823 0.985305C10.5906 0.887535 10.3411 0.836753 10.0889 0.835888C9.83679 0.835023 9.58696 0.884092 9.35387 0.980265C9.12078 1.07644 8.90903 1.21781 8.73085 1.39623L0.604366 9.46715C0.424729 9.6441 0.281906 9.85487 0.184136 10.0873C0.0863657 10.3197 0.0355829 10.5692 0.0347178 10.8214C0.0338528 11.0735 0.0829227 11.3233 0.179096 11.5564C0.275269 11.7895 0.416643 12.0013 0.595061 12.1795L8.66566 20.4014C8.84352 20.5791 9.05471 20.7199 9.2871 20.8157C9.5195 20.9116 9.76852 20.9606 10.0199 20.96C10.2713 20.9623 10.5206 20.915 10.7537 20.8207C10.9867 20.7265 11.1989 20.5872 11.378 20.4107C11.7349 20.0541 11.9363 19.5707 11.938 19.0661C11.9397 18.5614 11.7417 18.0766 11.3872 17.7175L4.64907 10.8372Z" fill="white"/>
</svg>
