<svg width="28" height="28" viewBox="0 0 28 28" fill="none" xmlns="http://www.w3.org/2000/svg">
<g clip-path="url(#clip0_454_3395)">
<path d="M17.0217 9.33325L14 12.3549L10.9784 9.33325L9.33337 10.9783L12.355 13.9999L9.33337 17.0216L10.9784 18.6666L14 15.6449L17.0217 18.6666L18.6667 17.0216L15.645 13.9999L18.6667 10.9783L17.0217 9.33325ZM14 2.33325C7.54837 2.33325 2.33337 7.54825 2.33337 13.9999C2.33337 20.4516 7.54837 25.6666 14 25.6666C20.4517 25.6666 25.6667 20.4516 25.6667 13.9999C25.6667 7.54825 20.4517 2.33325 14 2.33325ZM14 23.3333C8.85504 23.3333 4.66671 19.1449 4.66671 13.9999C4.66671 8.85492 8.85504 4.66659 14 4.66659C19.145 4.66659 23.3334 8.85492 23.3334 13.9999C23.3334 19.1449 19.145 23.3333 14 23.3333Z" fill="#DE5656"/>
</g>
<defs>
<clipPath id="clip0_454_3395">
<rect width="28" height="28" fill="white"/>
</clipPath>
</defs>
</svg>
