<svg width="25" height="24" viewBox="0 0 25 24" fill="none" xmlns="http://www.w3.org/2000/svg">
<g opacity="0.4">
<path d="M22.4005 20.469L17.6005 15.775C18.8215 14.344 19.5577 12.505 19.5577 10.5C19.5577 5.951 15.7732 2.25 11.1214 2.25C6.46965 2.25 2.68506 5.951 2.68506 10.5C2.68506 15.049 6.46965 18.75 11.1214 18.75C13.1717 18.75 15.0522 18.0301 16.5155 16.8361L21.3156 21.53C21.4649 21.676 21.6612 21.75 21.8575 21.75C22.0539 21.75 22.2502 21.677 22.3995 21.53C22.7002 21.237 22.7002 20.762 22.4005 20.469ZM4.21894 10.5C4.21894 6.778 7.31533 3.75 11.1214 3.75C14.9275 3.75 18.0239 6.778 18.0239 10.5C18.0239 14.222 14.9275 17.25 11.1214 17.25C7.31533 17.25 4.21894 14.222 4.21894 10.5Z" fill="black"/>
</g>
</svg>
