<svg width="25" height="24" viewBox="0 0 25 24" fill="none" xmlns="http://www.w3.org/2000/svg">
<path d="M9.13452 3.75C7.60152 3.75 6.32153 4.82 5.98053 6.25H3.63452C3.22052 6.25 2.88452 6.586 2.88452 7C2.88452 7.414 3.22052 7.75 3.63452 7.75H5.98053C6.32153 9.18 7.60152 10.25 9.13452 10.25C10.9265 10.25 12.3845 8.792 12.3845 7C12.3845 5.208 10.9265 3.75 9.13452 3.75ZM9.13452 8.75C8.16952 8.75 7.38452 7.965 7.38452 7C7.38452 6.035 8.16952 5.25 9.13452 5.25C10.0995 5.25 10.8845 6.035 10.8845 7C10.8845 7.965 10.0995 8.75 9.13452 8.75ZM14.8845 7C14.8845 6.586 15.2205 6.25 15.6345 6.25H21.6345C22.0485 6.25 22.3845 6.586 22.3845 7C22.3845 7.414 22.0485 7.75 21.6345 7.75H15.6345C15.2205 7.75 14.8845 7.414 14.8845 7ZM21.6345 16.25H19.2885C18.9475 14.82 17.6675 13.75 16.1345 13.75C14.3425 13.75 12.8845 15.208 12.8845 17C12.8845 18.792 14.3425 20.25 16.1345 20.25C17.6675 20.25 18.9475 19.18 19.2885 17.75H21.6345C22.0485 17.75 22.3845 17.414 22.3845 17C22.3845 16.586 22.0485 16.25 21.6345 16.25ZM16.1345 18.75C15.1695 18.75 14.3845 17.965 14.3845 17C14.3845 16.035 15.1695 15.25 16.1345 15.25C17.0995 15.25 17.8845 16.035 17.8845 17C17.8845 17.965 17.0995 18.75 16.1345 18.75ZM10.3845 17C10.3845 17.414 10.0485 17.75 9.63452 17.75H3.63452C3.22052 17.75 2.88452 17.414 2.88452 17C2.88452 16.586 3.22052 16.25 3.63452 16.25H9.63452C10.0485 16.25 10.3845 16.586 10.3845 17Z" fill="#1A0700"/>
</svg>
